<svg width="28" height="24" viewBox="0 0 28 24" fill="none" xmlns="http://www.w3.org/2000/svg">
<path d="M24.5 1.5H3.5C2.39543 1.5 1.5 2.39543 1.5 3.5V20.5C1.5 21.6046 2.39543 22.5 3.5 22.5H24.5C25.6046 22.5 26.5 21.6046 26.5 20.5V3.5C26.5 2.39543 25.6046 1.5 24.5 1.5Z" stroke="#1AA752" stroke-width="1.5" stroke-linecap="round" stroke-linejoin="round"/>
<path d="M5.5 22.4004L18.5 11.4004L26.5 17.4004" stroke="#1AA752" stroke-width="1.5" stroke-linecap="round" stroke-linejoin="round"/>
<path d="M8.5 9.5C9.05228 9.5 9.5 9.05228 9.5 8.5C9.5 7.94772 9.05228 7.5 8.5 7.5C7.94772 7.5 7.5 7.94772 7.5 8.5C7.5 9.05228 7.94772 9.5 8.5 9.5Z" fill="#1AA752" stroke="#1AA752" stroke-width="1.5" stroke-linecap="round" stroke-linejoin="round"/>
</svg>
