<svg width="27" height="27" viewBox="0 0 27 27" fill="none" xmlns="http://www.w3.org/2000/svg">
<path d="M11.3334 15.6667L26.0001 1M11.3334 15.6667L16.0001 25C16.0586 25.1277 16.1525 25.2358 16.2707 25.3117C16.3889 25.3875 16.5263 25.4278 16.6668 25.4278C16.8072 25.4278 16.9446 25.3875 17.0628 25.3117C17.181 25.2358 17.2749 25.1277 17.3334 25L26.0001 1M11.3334 15.6667L2.00009 11C1.87244 10.9415 1.76426 10.8476 1.68842 10.7294C1.61258 10.6112 1.57227 10.4738 1.57227 10.3333C1.57227 10.1929 1.61258 10.0554 1.68842 9.93726C1.76426 9.81909 1.87244 9.72517 2.00009 9.66667L26.0001 1" stroke="#1AA752" stroke-width="1.5" stroke-linecap="round" stroke-linejoin="round"/>
</svg>
